<?xml version="1.0" standalone="no"?>
<!DOCTYPE svg PUBLIC "-//W3C//DTD SVG 20010904//EN"
 "http://www.w3.org/TR/2001/REC-SVG-20010904/DTD/svg10.dtd">
<svg version="1.0" xmlns="http://www.w3.org/2000/svg"
 width="300.000000pt" height="67.000000pt" viewBox="0 0 300.000000 67.000000"
 preserveAspectRatio="xMidYMid meet">

<g transform="translate(0.000000,67.000000) scale(0.100000,-0.100000)"
fill="#000000" stroke="none">
<path d="M564 486 c-75 -33 -110 -156 -62 -225 37 -55 71 -75 127 -74 86 1
151 60 151 137 l0 36 -80 0 c-79 0 -80 0 -80 -25 0 -23 3 -25 50 -25 55 0 59
-6 31 -41 -15 -19 -29 -24 -65 -24 -64 0 -91 28 -91 96 0 43 4 54 28 75 35 30
85 31 120 4 25 -20 77 -28 77 -11 0 4 -10 21 -22 36 -40 51 -120 69 -184 41z"/>
<path d="M1900 478 c-131 -68 -96 -272 49 -286 28 -2 61 -2 75 2 25 6 86 60
86 77 0 18 -67 9 -85 -11 -46 -51 -145 0 -145 75 0 42 22 90 45 99 34 13 85 6
105 -14 20 -20 80 -28 80 -11 0 22 -54 71 -88 81 -54 15 -73 13 -122 -12z"/>
<path d="M830 310 l0 -120 30 0 30 0 0 78 c0 83 9 102 47 102 19 0 23 5 23 30
0 35 -22 40 -52 13 -17 -15 -18 -15 -18 0 0 12 -9 17 -30 17 l-30 0 0 -120z"/>
<path d="M1028 401 c-30 -27 -33 -34 -33 -89 0 -50 4 -65 24 -86 48 -51 136
-51 180 1 l25 28 -32 3 c-18 2 -42 -4 -54 -12 -30 -21 -44 -20 -68 4 -34 34
-24 40 70 40 101 0 105 4 76 74 -19 46 -51 66 -108 66 -39 0 -54 -6 -80 -29z
m105 -22 c22 -12 37 -28 37 -41 0 -5 -27 -8 -60 -8 -33 0 -60 4 -60 8 0 18 29
44 58 51 2 1 13 -4 25 -10z"/>
<path d="M1298 401 c-30 -27 -33 -34 -33 -89 0 -50 4 -65 24 -86 48 -51 136
-51 180 1 l25 28 -32 3 c-18 2 -42 -4 -54 -12 -30 -21 -44 -20 -68 4 -34 34
-24 40 65 40 97 0 104 6 85 64 -17 52 -53 76 -111 76 -40 0 -55 -5 -81 -29z
m110 -27 c40 -28 28 -44 -33 -44 -30 0 -55 4 -55 8 0 13 23 39 40 45 23 8 24
8 48 -9z"/>
<path d="M1540 310 l0 -120 30 0 30 0 0 73 c0 85 16 117 59 117 43 0 51 -16
51 -107 l0 -83 30 0 30 0 0 95 c0 88 -2 98 -25 120 -18 19 -35 25 -68 25 -23
0 -49 -6 -56 -12 -11 -10 -14 -10 -18 0 -3 6 -18 12 -34 12 l-29 0 0 -120z"/>
<path d="M2193 402 c-54 -50 -50 -152 8 -194 30 -22 104 -27 139 -8 52 28 75
112 45 170 -23 44 -53 60 -111 60 -43 0 -57 -5 -81 -28z m131 -44 c36 -51 8
-118 -48 -118 -42 0 -61 22 -61 70 0 21 7 45 14 54 20 24 77 21 95 -6z"/>
<path d="M2450 310 l0 -120 30 0 30 0 0 78 c0 83 9 102 47 102 19 0 23 5 23
30 0 35 -22 40 -52 13 -17 -15 -18 -15 -18 0 0 12 -9 17 -30 17 l-30 0 0 -120z"/>
<path d="M2620 250 l0 -180 30 0 30 0 0 75 0 75 25 -16 c51 -33 129 -12 153
42 26 57 6 150 -37 174 -29 15 -93 12 -119 -6 -20 -14 -22 -14 -22 0 0 11 -10
16 -30 16 l-30 0 0 -180z m174 108 c34 -48 8 -118 -42 -118 -33 0 -45 8 -61
38 -14 27 -8 63 15 86 23 24 70 20 88 -6z"/>
</g>
</svg>
